<svg width="52" height="51" viewBox="0 0 52 51" fill="none" xmlns="http://www.w3.org/2000/svg">
<path fill-rule="evenodd" clip-rule="evenodd" d="M25.7662 0C11.5346 0 0 11.5346 0 25.7662C0 37.1483 7.38058 46.8074 17.6209 50.2174C18.91 50.4499 19.375 49.6568 19.375 48.9748C19.375 48.3626 19.3543 46.7402 19.3466 44.5935C12.1778 46.1487 10.664 41.137 10.664 41.137C9.49633 38.161 7.80425 37.3679 7.80425 37.3679C5.46633 35.7688 7.9825 35.805 7.9825 35.805C10.571 35.9858 11.9273 38.4607 11.9273 38.4607C14.2264 42.3977 17.9619 41.261 19.4241 40.6022C19.6592 38.936 20.3308 37.7993 21.0645 37.1561C15.345 36.5077 9.331 34.2963 9.331 24.4202C9.331 21.6122 10.3359 19.3078 11.9763 17.5098C11.7154 16.8562 10.8242 14.2342 12.2321 10.6898C12.2321 10.6898 14.3943 9.99492 19.3156 13.3274C21.4174 12.7556 23.5854 12.4638 25.7636 12.4594C27.9418 12.4629 30.11 12.7548 32.2116 13.3274C37.1354 9.99233 39.2951 10.6898 39.2951 10.6898C40.703 14.2342 39.8195 16.8562 39.5508 17.5098C41.2042 19.3078 42.1962 21.6096 42.1962 24.4202C42.1962 34.3222 36.177 36.4973 30.4368 37.1354C31.3539 37.9311 32.1806 39.5018 32.1806 41.9043C32.1806 45.3504 32.1496 48.1301 32.1496 48.9748C32.1496 49.6646 32.6094 50.4654 33.9243 50.2122C44.1595 46.7971 51.5323 37.1457 51.5323 25.7662C51.5323 11.5346 39.9978 0 25.7662 0Z" fill="black"/>
</svg>
