<svg width="50" height="51" viewBox="0 0 50 51" fill="none" xmlns="http://www.w3.org/2000/svg">
<path fill-rule="evenodd" clip-rule="evenodd" d="M39.5834 10.4971H10.4167C9.26611 10.4971 8.33337 11.4298 8.33337 12.5804C8.33337 13.731 9.26611 14.6637 10.4167 14.6637H39.5834C40.734 14.6637 41.6667 13.731 41.6667 12.5804C41.6667 11.4298 40.734 10.4971 39.5834 10.4971ZM39.5834 22.9971H10.4167C9.26611 22.9971 8.33337 23.9298 8.33337 25.0804C8.33337 26.231 9.26611 27.1637 10.4167 27.1637H39.5834C40.734 27.1637 41.6667 26.231 41.6667 25.0804C41.6667 23.9298 40.734 22.9971 39.5834 22.9971ZM10.4167 35.4971H39.5834C40.734 35.4971 41.6667 36.4298 41.6667 37.5804C41.6667 38.731 40.734 39.6637 39.5834 39.6637H10.4167C9.26611 39.6637 8.33337 38.731 8.33337 37.5804C8.33337 36.4298 9.26611 35.4971 10.4167 35.4971Z" fill="#373867"/>
</svg>
