<svg width="62" height="62" viewBox="0 0 62 62" fill="none" xmlns="http://www.w3.org/2000/svg">
<path d="M30.9976 19.0571C27.8295 19.0571 24.7911 20.3157 22.551 22.5558C20.3108 24.796 19.0522 27.8344 19.0522 31.0025C19.0522 34.1706 20.3108 37.2089 22.551 39.4491C24.7911 41.6893 27.8295 42.9478 30.9976 42.9478C34.1657 42.9478 37.204 41.6893 39.4442 39.4491C41.6844 37.2089 42.9429 34.1706 42.9429 31.0025C42.9429 27.8344 41.6844 24.796 39.4442 22.5558C37.204 20.3157 34.1657 19.0571 30.9976 19.0571ZM30.9976 38.7602C28.9394 38.7602 26.9655 37.9426 25.5102 36.4873C24.0549 35.0319 23.2372 33.058 23.2372 30.9999C23.2372 28.9417 24.0549 26.9678 25.5102 25.5125C26.9655 24.0572 28.9394 23.2395 30.9976 23.2395C33.0557 23.2395 35.0296 24.0572 36.485 25.5125C37.9403 26.9678 38.7579 28.9417 38.7579 30.9999C38.7579 33.058 37.9403 35.0319 36.485 36.4873C35.0296 37.9426 33.0557 38.7602 30.9976 38.7602Z" fill="black"/>
<path d="M43.4157 21.4027C44.9537 21.4027 46.2005 20.1559 46.2005 18.6178C46.2005 17.0798 44.9537 15.833 43.4157 15.833C41.8777 15.833 40.6309 17.0798 40.6309 18.6178C40.6309 20.1559 41.8777 21.4027 43.4157 21.4027Z" fill="black"/>
<path d="M53.0438 15.7865C52.4458 14.2422 51.5318 12.8397 50.3606 11.6688C49.1893 10.498 47.7865 9.58465 46.2419 8.9872C44.4344 8.3087 42.5249 7.94183 40.5947 7.9022C38.107 7.7937 37.319 7.7627 31.0105 7.7627C24.702 7.7627 23.8935 7.7627 21.4264 7.9022C19.4976 7.9398 17.5895 8.30675 15.7844 8.9872C14.2394 9.58395 12.8362 10.4971 11.6648 11.668C10.4935 12.8389 9.57979 14.2418 8.98245 15.7865C8.30382 17.5939 7.93779 19.5035 7.90004 21.4337C7.78895 23.9189 7.75537 24.7068 7.75537 31.0179C7.75537 37.3264 7.75537 38.1298 7.90004 40.602C7.93879 42.5344 8.30304 44.4409 8.98245 46.2518C9.58147 47.796 10.496 49.1983 11.6677 50.369C12.8393 51.5398 14.2423 52.4533 15.787 53.0511C17.5887 53.7569 19.4976 54.15 21.4315 54.2136C23.9193 54.3221 24.7072 54.3557 31.0157 54.3557C37.3242 54.3557 38.1328 54.3557 40.5999 54.2136C42.5299 54.1744 44.4393 53.8084 46.247 53.1312C47.7912 52.5323 49.1936 51.6182 50.3648 50.447C51.5359 49.2759 52.4501 47.8735 53.049 46.3293C53.7284 44.5209 54.0926 42.6144 54.1314 40.6821C54.2425 38.1969 54.276 37.409 54.276 31.0979C54.276 24.7869 54.276 23.986 54.1314 21.5138C54.1013 19.5563 53.7334 17.6188 53.0438 15.7865ZM49.8973 40.4109C49.8806 41.8996 49.6089 43.3746 49.0939 44.7715C48.7059 45.7761 48.112 46.6884 47.3503 47.4496C46.5886 48.2109 45.676 48.8042 44.6712 49.1916C43.2897 49.7043 41.8305 49.976 40.357 49.995C37.9029 50.1087 37.2105 50.1371 30.9175 50.1371C24.6194 50.1371 23.9761 50.1371 21.4755 49.995C20.0028 49.977 18.5442 49.7052 17.1639 49.1916C16.1556 48.8066 15.2393 48.2143 14.4743 47.4529C13.7094 46.6915 13.1128 45.778 12.7231 44.7715C12.2154 43.3896 11.9438 41.932 11.9197 40.4599C11.8086 38.0058 11.7828 37.3134 11.7828 31.0204C11.7828 24.7249 11.7828 24.0816 11.9197 21.5784C11.9364 20.0904 12.2081 18.6164 12.7231 17.2203C13.511 15.182 15.1256 13.5778 17.1639 12.7976C18.5449 12.2865 20.003 12.0148 21.4755 11.9942C23.9322 11.8831 24.622 11.8521 30.9175 11.8521C37.2131 11.8521 37.859 11.8521 40.357 11.9942C41.8306 12.0119 43.29 12.2837 44.6712 12.7976C45.6759 13.1858 46.5884 13.7798 47.35 14.5414C48.1117 15.3031 48.7057 16.2155 49.0939 17.2203C49.6016 18.6022 49.8732 20.0598 49.8973 21.5319C50.0084 23.9886 50.0368 24.6784 50.0368 30.9739C50.0368 37.2669 50.0368 37.9438 49.9257 40.4134H49.8973V40.4109Z" fill="black"/>
</svg>
