<svg width="47" height="47" viewBox="0 0 47 47" fill="none" xmlns="http://www.w3.org/2000/svg">
<path d="M43.9167 0H2.58333C1.89819 0 1.24111 0.272172 0.756641 0.756641C0.272172 1.24111 0 1.89819 0 2.58333V43.9167C0 44.6018 0.272172 45.2589 0.756641 45.7434C1.24111 46.2278 1.89819 46.5 2.58333 46.5H43.9167C44.6018 46.5 45.2589 46.2278 45.7434 45.7434C46.2278 45.2589 46.5 44.6018 46.5 43.9167V2.58333C46.5 1.89819 46.2278 1.24111 45.7434 0.756641C45.2589 0.272172 44.6018 0 43.9167 0ZM13.7924 39.6206H6.88975V17.4297H13.7924V39.6206ZM10.3411 14.3995C9.28048 14.3995 8.26332 13.9782 7.51336 13.2282C6.7634 12.4783 6.34208 11.4611 6.34208 10.4005C6.34208 9.3399 6.7634 8.32274 7.51336 7.57278C8.26332 6.82282 9.28048 6.4015 10.3411 6.4015C11.4017 6.4015 12.4188 6.82282 13.1688 7.57278C13.9188 8.32274 14.3401 9.3399 14.3401 10.4005C14.3401 11.4611 13.9188 12.4783 13.1688 13.2282C12.4188 13.9782 11.4017 14.3995 10.3411 14.3995ZM39.6232 39.6206H32.7282V28.83C32.7282 26.257 32.6818 22.9478 29.1426 22.9478C25.5518 22.9478 25.0067 25.7533 25.0067 28.6492V39.6232H18.1169V17.4323H24.7302V20.4652H24.8258C25.7429 18.7214 27.9956 16.8821 31.3462 16.8821C38.3315 16.8821 39.6206 21.4752 39.6206 27.4531V39.6206H39.6232Z" fill="black"/>
</svg>
