<svg width="51" height="42" viewBox="0 0 51 42" fill="none" xmlns="http://www.w3.org/2000/svg">
<path d="M45.5519 10.2765C45.5855 10.7286 45.5855 11.1781 45.5855 11.6276C45.5855 25.3838 35.1152 41.2352 15.9805 41.2352C10.0853 41.2352 4.60867 39.5276 0 36.5619C0.837 36.6575 1.643 36.6911 2.51358 36.6911C7.19715 36.7024 11.7481 35.1363 15.4328 32.2452C13.2613 32.2059 11.1563 31.4894 9.4117 30.1959C7.66708 28.9024 6.36994 27.0963 5.70142 25.0299C6.34467 25.1255 6.9905 25.1901 7.66733 25.1901C8.59992 25.1901 9.53767 25.0609 10.4082 24.8362C8.05163 24.3603 5.93256 23.083 4.41135 21.2213C2.89014 19.3596 2.06071 17.0284 2.06408 14.6242V14.4951C3.45133 15.2675 5.06075 15.7506 6.76575 15.8152C5.3374 14.866 4.16619 13.5781 3.35663 12.0662C2.54706 10.5544 2.12431 8.86563 2.12608 7.15067C2.12608 5.21833 2.64017 3.44617 3.54175 1.90133C6.15644 5.11764 9.41755 7.74887 13.1139 9.62462C16.8102 11.5004 20.8593 12.5788 24.9989 12.7901C24.8387 12.0151 24.7406 11.2117 24.7406 10.4057C24.7399 9.03898 25.0086 7.68557 25.5313 6.42279C26.054 5.16001 26.8204 4.01263 27.7868 3.04624C28.7532 2.07985 29.9006 1.3134 31.1634 0.790703C32.4261 0.268009 33.7796 -0.000677813 35.1462 1.28408e-06C38.1429 1.28408e-06 40.8477 1.2555 42.749 3.286C45.0786 2.83551 47.3126 1.98509 49.352 0.772417C48.5755 3.17702 46.9489 5.21602 44.7769 6.50742C46.843 6.27176 48.8623 5.72842 50.7677 4.89542C49.3446 6.97009 47.5812 8.78939 45.5519 10.2765Z" fill="black"/>
</svg>
